<?xml version="1.0" standalone="no"?>
<!DOCTYPE svg PUBLIC "-//W3C//DTD SVG 1.1//EN"
"http://www.w3.org/Graphics/SVG/1.1/DTD/svg11.dtd"><svg id="svg" version="1.1" width="1025" height="1017" xmlns="http://www.w3.org/2000/svg"><path d="M479.708 35.740 L 473.915 36.102 474.592 46.301 C 474.964 51.911,475.321 56.546,475.384 56.602 C 475.448 56.658,479.687 56.490,484.804 56.227 L 494.108 55.750 493.804 52.625 L 493.500 49.500 487.250 49.790 L 481.000 50.079 481.000 46.176 L 481.000 42.273 490.750 41.748 C 496.113 41.460,500.660 41.371,500.855 41.550 C 501.050 41.729,501.448 46.561,501.741 52.288 L 502.272 62.701 489.886 63.398 C 477.487 64.096,457.334 66.211,447.000 67.900 C 443.975 68.394,441.384 68.690,441.242 68.558 C 440.511 67.876,437.438 47.847,438.011 47.494 C 439.082 46.832,456.935 44.598,457.371 45.072 C 457.589 45.307,458.073 46.931,458.447 48.679 C 459.125 51.847,459.110 51.861,454.314 52.504 C 447.658 53.396,446.998 53.687,447.015 55.719 C 447.048 59.564,448.071 59.863,457.339 58.739 L 466.177 57.667 465.629 53.584 C 465.327 51.338,464.785 46.913,464.425 43.750 L 463.770 38.000 459.635 38.000 C 455.578 38.000,430.957 41.709,430.238 42.429 C 429.788 42.879,435.558 74.891,436.206 75.540 C 436.463 75.796,442.483 75.130,449.586 74.060 C 463.420 71.976,478.675 70.480,496.750 69.433 L 508.000 68.781 508.000 51.891 L 508.000 35.000 496.750 35.189 C 490.563 35.293,482.893 35.541,479.708 35.740 M519.000 51.899 L 519.000 68.799 531.750 69.463 C 548.889 70.357,572.701 72.681,582.500 74.416 C 586.900 75.195,590.769 75.533,591.097 75.166 C 592.066 74.085,597.247 42.914,596.571 42.237 C 595.718 41.385,564.750 36.917,564.112 37.555 C 563.459 38.208,562.195 48.216,562.084 53.612 L 562.000 57.724 568.750 58.411 C 572.463 58.788,576.513 59.349,577.750 59.657 C 579.761 60.157,580.000 59.845,580.000 56.724 C 580.000 53.239,579.986 53.229,574.500 52.543 C 569.037 51.861,569.000 51.833,569.000 48.428 C 569.000 45.123,569.137 45.000,572.816 45.000 C 576.486 45.000,587.850 46.792,589.110 47.569 C 589.659 47.908,587.940 59.848,586.474 65.883 C 585.929 68.128,585.593 68.228,580.698 67.604 C 560.328 65.008,550.054 63.971,538.844 63.379 L 526.000 62.701 526.000 51.706 L 526.000 40.711 532.750 41.348 C 536.463 41.699,540.963 41.989,542.750 41.993 C 545.872 42.000,546.000 42.157,546.000 45.985 L 546.000 49.969 540.000 49.342 L 534.000 48.715 534.000 52.287 L 534.000 55.858 543.002 56.179 L 552.005 56.500 552.073 54.000 C 552.111 52.625,552.455 48.068,552.838 43.873 L 553.533 36.246 547.017 35.630 C 543.432 35.291,535.663 35.011,529.750 35.007 L 519.000 35.000 519.000 51.899 M608.530 45.225 C 608.296 45.926,606.582 53.542,604.723 62.150 L 601.341 77.799 612.920 80.518 C 626.695 83.753,645.682 89.409,659.500 94.393 C 665.000 96.376,669.978 98.000,670.561 98.000 C 671.539 98.000,683.000 69.650,683.000 67.231 C 683.000 66.114,681.520 65.503,663.202 59.060 C 655.232 56.256,651.773 55.441,651.460 56.293 C 649.266 62.248,646.000 72.596,646.000 73.593 C 646.000 75.144,661.882 80.541,662.976 79.362 C 663.416 78.888,664.055 77.571,664.396 76.435 C 664.936 74.640,664.286 74.140,659.420 72.606 C 654.128 70.938,653.859 70.696,654.482 68.171 C 654.845 66.702,655.520 65.112,655.982 64.638 C 656.771 63.830,670.819 67.968,673.895 69.915 C 675.040 70.639,674.620 72.476,671.553 80.149 C 669.498 85.292,667.697 89.622,667.553 89.772 C 667.408 89.921,659.912 87.610,650.895 84.637 C 641.878 81.663,628.754 77.759,621.732 75.961 C 611.403 73.316,609.049 72.387,609.412 71.096 C 609.659 70.218,610.621 65.900,611.550 61.500 C 612.479 57.100,613.536 53.172,613.898 52.771 C 614.440 52.173,628.369 54.910,632.695 56.465 C 633.550 56.773,633.630 57.804,632.976 60.083 C 632.473 61.837,631.914 63.419,631.734 63.599 C 631.554 63.779,628.974 63.284,626.000 62.500 C 623.026 61.716,620.464 61.202,620.307 61.360 C 620.150 61.517,619.755 62.974,619.430 64.598 L 618.840 67.550 627.155 69.740 C 631.729 70.944,635.778 71.608,636.155 71.215 C 637.047 70.283,642.096 52.762,641.611 52.278 C 641.306 51.973,622.442 47.128,611.728 44.604 C 609.884 44.170,608.813 44.378,608.530 45.225 M401.107 48.511 C 393.741 50.367,387.303 52.297,386.800 52.800 C 385.943 53.657,389.983 70.317,391.390 71.723 C 391.875 72.208,407.857 68.490,408.612 67.716 C 408.728 67.597,408.576 66.214,408.274 64.641 C 407.686 61.577,407.622 61.570,398.352 63.540 C 395.430 64.161,395.155 63.982,394.507 61.033 C 394.124 59.286,394.040 57.626,394.322 57.345 C 394.604 57.063,398.951 55.785,403.983 54.504 C 410.547 52.834,413.253 52.505,413.565 53.338 C 414.919 56.962,417.799 72.585,417.205 73.089 C 416.817 73.417,410.650 75.164,403.500 76.969 C 396.350 78.775,383.594 82.622,375.154 85.519 L 359.808 90.785 358.439 87.509 C 357.687 85.707,355.944 81.239,354.566 77.580 L 352.062 70.927 354.781 69.856 C 359.966 67.812,371.339 64.006,371.520 64.252 C 371.621 64.388,372.183 65.923,372.769 67.663 C 373.784 70.675,373.684 70.882,370.668 72.004 C 362.595 75.007,362.753 74.880,363.479 77.773 C 363.855 79.271,364.272 80.605,364.405 80.738 C 364.767 81.100,380.379 75.848,381.247 75.073 C 382.139 74.276,376.174 56.000,375.022 56.000 C 373.972 56.000,352.569 63.413,347.750 65.445 C 345.688 66.315,344.000 67.404,344.000 67.865 C 344.000 68.326,346.651 75.408,349.892 83.602 C 354.671 95.686,356.135 98.467,357.642 98.328 C 358.664 98.233,366.700 95.608,375.500 92.495 C 384.300 89.381,399.150 84.863,408.500 82.455 C 417.850 80.046,425.452 77.721,425.392 77.288 C 425.333 76.855,423.763 69.413,421.903 60.750 C 418.883 46.688,418.305 45.007,416.510 45.068 C 415.405 45.106,408.473 46.655,401.107 48.511 M688.035 85.737 C 684.581 93.843,681.562 100.977,681.326 101.592 C 681.090 102.207,683.283 103.726,686.199 104.969 C 695.916 109.111,720.350 121.670,732.847 128.948 C 739.639 132.903,745.371 135.962,745.586 135.747 C 745.926 135.407,761.406 111.460,763.287 108.364 C 763.896 107.361,747.328 96.667,737.479 91.707 L 734.458 90.186 729.632 99.163 C 726.978 104.100,724.962 108.262,725.153 108.411 C 725.344 108.560,728.966 110.573,733.202 112.885 L 740.904 117.087 742.408 114.178 L 743.912 111.270 738.956 108.573 C 736.230 107.089,734.000 105.656,734.000 105.388 C 734.000 105.120,734.691 103.564,735.536 101.930 L 737.073 98.958 741.786 101.674 C 752.700 107.960,754.176 109.099,753.544 110.745 C 752.508 113.445,743.698 127.000,742.979 127.000 C 742.609 127.000,738.526 124.719,733.904 121.932 C 729.282 119.144,717.532 112.957,707.792 108.182 C 698.053 103.407,690.066 99.058,690.042 98.518 C 689.967 96.758,697.476 80.046,698.353 80.023 C 700.524 79.965,716.000 88.024,716.000 89.213 C 716.000 89.951,715.302 91.551,714.449 92.769 L 712.899 94.982 707.850 92.424 C 705.073 91.017,702.682 90.008,702.536 90.183 C 701.922 90.918,700.000 94.916,700.000 95.460 C 700.000 96.043,714.664 103.004,715.875 102.995 C 716.512 102.991,725.000 86.891,725.000 85.688 C 725.000 84.724,696.607 71.000,694.612 71.000 C 694.448 71.000,691.488 77.632,688.035 85.737 M324.000 75.367 C 319.875 77.189,313.236 80.333,309.247 82.354 L 301.994 86.028 306.507 95.014 C 308.989 99.956,311.251 104.000,311.532 104.000 C 311.814 104.000,315.625 102.200,320.001 100.000 C 327.719 96.119,327.923 95.925,326.818 93.500 C 325.453 90.505,324.781 90.463,319.141 93.022 C 316.743 94.110,314.617 95.000,314.416 95.000 C 314.216 95.000,313.357 93.658,312.509 92.018 L 310.967 89.036 320.025 84.487 L 329.083 79.938 331.448 85.219 C 332.749 88.124,334.728 92.513,335.846 94.972 L 337.879 99.445 318.189 109.526 C 307.360 115.071,295.455 121.496,291.732 123.804 C 288.010 126.112,284.776 128.000,284.545 128.000 C 284.099 128.000,273.000 111.208,273.000 110.533 C 273.000 110.041,289.552 100.000,290.363 100.000 C 291.038 100.000,294.312 106.070,293.824 106.415 C 293.646 106.541,291.363 107.868,288.750 109.364 C 283.492 112.375,283.357 112.637,285.486 115.677 C 286.971 117.797,286.982 117.795,294.993 113.263 L 303.013 108.727 298.359 100.113 C 295.800 95.376,293.589 91.354,293.446 91.176 C 292.823 90.401,265.586 106.242,264.489 108.019 C 263.971 108.856,280.293 135.445,281.955 136.472 C 282.337 136.708,286.441 134.619,291.075 131.829 C 303.091 124.596,324.858 113.067,336.234 107.911 C 341.588 105.485,345.975 103.204,345.984 102.842 C 346.022 101.296,333.261 72.590,332.423 72.335 C 331.915 72.181,328.125 73.546,324.000 75.367 M626.984 115.250 C 625.891 117.038,623.631 121.875,621.962 126.000 C 616.912 138.482,609.813 152.077,607.593 153.517 C 606.442 154.264,602.350 155.404,598.500 156.051 C 590.055 157.470,588.680 158.472,591.744 160.977 C 593.417 162.344,595.009 162.674,597.994 162.274 C 600.197 161.978,602.000 162.099,602.000 162.541 C 602.000 163.601,592.584 174.725,588.618 178.350 C 586.903 179.917,583.700 182.023,581.500 183.029 L 577.500 184.859 580.665 184.929 C 586.835 185.067,601.371 175.611,607.057 167.763 L 609.808 163.965 613.458 170.491 C 615.465 174.081,618.642 181.143,620.516 186.185 C 622.391 191.228,624.587 196.016,625.397 196.825 C 627.071 198.499,639.666 198.734,641.279 197.121 C 642.591 195.809,641.269 194.000,638.998 194.000 C 635.970 194.000,625.673 183.679,618.051 173.003 C 614.173 167.571,611.000 162.722,611.000 162.227 C 611.000 161.733,613.701 160.577,617.002 159.659 C 620.302 158.742,626.152 156.583,630.002 154.861 C 637.557 151.483,638.371 150.023,635.500 145.000 C 634.714 143.625,634.055 141.488,634.035 140.250 C 634.016 139.013,633.514 138.000,632.921 138.000 C 632.243 138.000,632.085 139.109,632.495 140.978 C 633.810 146.962,631.496 149.203,622.630 150.533 C 620.084 150.915,618.000 150.964,618.000 150.642 C 618.000 150.321,620.075 146.557,622.612 142.279 C 631.326 127.580,634.818 116.895,632.012 113.514 C 630.168 111.293,629.198 111.628,626.984 115.250 M768.752 120.250 C 761.242 130.861,753.813 142.150,754.165 142.416 C 754.349 142.556,758.550 145.517,763.500 148.997 C 775.534 157.458,788.333 167.729,800.639 178.800 L 810.777 187.922 822.605 175.325 L 834.433 162.728 828.922 157.614 C 818.589 148.024,810.280 141.000,809.269 141.000 C 808.316 141.000,796.688 154.301,796.334 155.798 C 796.242 156.184,799.226 159.061,802.964 162.192 L 809.760 167.884 812.051 165.446 C 813.311 164.105,814.152 162.880,813.921 162.723 C 813.689 162.566,811.599 160.776,809.276 158.745 L 805.051 155.052 807.442 152.276 L 809.832 149.500 812.666 151.976 C 814.225 153.337,817.628 156.461,820.229 158.917 L 824.958 163.383 818.229 170.442 C 814.528 174.324,811.169 177.648,810.765 177.828 C 810.361 178.009,804.961 173.793,798.765 168.461 C 792.569 163.128,782.100 154.689,775.500 149.707 C 768.900 144.725,763.638 140.202,763.806 139.657 C 764.212 138.339,774.101 124.056,774.985 123.509 C 775.935 122.922,791.000 133.881,791.000 135.158 C 791.000 135.723,790.158 137.255,789.128 138.564 L 787.256 140.944 782.516 137.251 L 777.776 133.558 775.888 135.890 C 774.850 137.172,774.028 138.509,774.062 138.861 C 774.145 139.722,787.547 149.394,788.429 149.230 C 788.812 149.159,791.855 145.682,795.190 141.503 C 800.965 134.269,801.165 133.836,799.377 132.433 C 794.692 128.756,774.114 114.000,773.671 114.000 C 773.398 114.000,771.185 116.813,768.752 120.250 M240.500 124.123 C 233.900 129.099,228.113 133.542,227.640 133.995 C 227.168 134.448,229.581 138.432,233.004 142.848 L 239.228 150.876 246.576 145.345 C 253.831 139.885,253.905 139.784,252.347 137.407 C 251.480 136.083,250.460 135.000,250.082 135.000 C 249.704 135.000,247.469 136.416,245.116 138.146 L 240.838 141.292 238.222 138.676 C 236.783 137.238,235.807 135.892,236.053 135.686 C 236.299 135.480,240.002 132.700,244.283 129.509 C 253.172 122.884,251.334 122.298,259.677 134.415 L 264.438 141.330 261.571 143.415 C 252.520 149.996,235.266 163.804,227.279 170.857 C 222.207 175.336,217.636 179.000,217.122 179.000 C 215.924 179.000,202.844 164.909,203.219 164.021 C 203.738 162.789,217.191 151.000,218.078 151.000 C 218.560 151.000,219.735 152.192,220.689 153.648 C 222.423 156.295,222.422 156.298,218.069 160.161 C 213.826 163.926,213.760 164.077,215.512 166.013 C 216.501 167.106,217.803 167.985,218.405 167.967 C 219.007 167.948,222.301 165.361,225.724 162.217 L 231.948 156.500 225.332 148.775 L 218.717 141.051 213.670 145.275 C 210.894 147.599,205.242 152.689,201.110 156.586 L 193.597 163.673 195.885 166.581 C 197.143 168.181,202.441 173.888,207.658 179.265 L 217.144 189.040 225.322 181.409 C 234.919 172.455,254.256 156.745,265.244 148.976 C 269.503 145.964,272.878 143.004,272.744 142.399 C 272.284 140.323,254.501 115.073,253.500 115.073 C 252.950 115.074,247.100 119.146,240.500 124.123 M378.410 120.146 C 378.021 120.776,377.481 126.657,377.211 133.215 L 376.720 145.139 372.610 150.058 C 370.349 152.763,365.492 157.636,361.816 160.887 C 358.140 164.138,355.402 167.069,355.732 167.399 C 357.806 169.473,367.595 165.167,374.036 159.349 C 379.319 154.575,379.069 156.878,373.366 165.500 C 366.231 176.287,364.817 180.684,363.347 196.640 C 362.851 202.021,363.046 203.046,364.927 204.927 C 366.107 206.107,367.432 206.851,367.872 206.579 C 368.311 206.308,368.068 202.354,367.331 197.793 C 365.651 187.389,366.171 184.982,371.053 180.571 C 374.539 177.422,375.247 177.155,377.457 178.162 C 379.376 179.037,380.300 178.996,381.521 177.983 C 382.869 176.864,383.184 176.989,383.667 178.836 C 383.979 180.026,384.690 181.000,385.248 181.000 C 386.209 181.000,385.864 185.735,384.555 190.500 C 384.253 191.600,384.709 193.400,385.568 194.500 C 387.120 196.487,387.142 196.485,389.037 194.174 C 390.955 191.834,393.000 191.975,393.000 194.448 C 393.000 195.180,393.885 196.841,394.967 198.139 L 396.933 200.500 396.923 198.000 C 396.918 196.625,396.528 193.508,396.058 191.073 C 395.529 188.328,395.586 185.807,396.211 184.437 C 397.590 181.410,395.248 176.609,392.179 176.172 C 388.923 175.709,388.635 174.024,390.943 168.937 C 393.809 162.621,393.631 161.000,390.071 161.000 C 386.771 161.000,384.000 163.252,384.000 165.935 C 384.000 167.770,379.438 173.000,377.838 173.000 C 377.349 173.000,377.633 171.763,378.469 170.250 C 384.099 160.068,386.636 156.731,393.429 150.570 C 402.412 142.423,402.979 142.564,405.248 153.500 C 406.047 157.350,408.568 166.755,410.851 174.401 C 416.414 193.038,416.258 195.489,409.526 195.298 C 406.685 195.217,406.145 195.470,406.989 196.487 C 408.731 198.586,416.931 200.302,418.600 198.917 C 420.652 197.214,420.326 189.841,417.907 183.225 C 410.181 162.096,408.814 157.379,407.922 148.753 C 406.393 133.972,404.375 133.668,390.155 146.073 C 379.299 155.543,380.044 152.702,392.315 137.839 C 396.885 132.303,396.998 129.033,392.657 127.879 C 390.063 127.189,389.864 127.320,390.380 129.378 C 391.010 131.889,388.637 136.000,386.557 136.000 C 385.739 136.000,384.955 134.187,384.520 131.287 C 383.702 125.830,381.162 119.000,379.950 119.000 C 379.493 119.000,378.799 119.516,378.410 120.146 M830.119 183.171 L 817.738 195.189 824.723 202.344 C 838.846 216.812,859.730 243.010,858.598 244.841 C 857.750 246.214,851.732 247.155,840.905 247.607 C 831.538 247.998,831.212 247.936,827.155 244.997 L 823.000 241.987 823.000 244.601 C 823.000 246.513,822.598 247.060,821.500 246.638 C 820.675 246.322,820.000 246.510,820.000 247.056 C 820.000 247.602,821.013 248.450,822.250 248.941 C 823.488 249.431,826.075 251.182,828.000 252.834 C 832.711 256.874,831.287 258.605,824.631 256.929 C 822.065 256.283,819.722 255.359,819.424 254.877 C 819.126 254.395,817.071 254.000,814.858 254.000 C 812.644 254.000,811.007 253.663,811.219 253.250 C 816.814 242.368,820.776 230.110,819.207 228.540 C 818.926 228.259,817.247 231.060,815.477 234.765 C 809.385 247.511,799.731 257.126,801.434 248.750 C 801.797 246.963,802.356 243.925,802.676 242.000 L 803.256 238.500 801.018 240.500 C 796.972 244.115,793.000 249.749,792.407 252.714 L 791.824 255.628 799.162 255.564 C 806.531 255.500,816.000 257.505,816.000 259.130 C 816.000 259.608,813.075 260.000,809.500 260.000 C 805.925 260.000,803.004 260.338,803.008 260.750 C 803.022 262.114,808.337 264.000,812.167 264.000 C 815.191 264.000,816.200 264.504,817.272 266.550 L 818.608 269.100 819.911 266.667 C 820.960 264.707,822.212 264.136,826.356 263.728 C 831.622 263.211,832.457 263.488,848.750 271.174 C 855.986 274.587,854.681 275.254,837.446 276.949 C 827.437 277.934,820.435 277.513,819.417 275.865 C 819.123 275.389,820.146 274.995,821.691 274.989 C 828.726 274.961,831.829 273.826,833.072 270.825 C 834.916 266.374,833.221 265.570,827.428 268.147 C 824.541 269.431,820.328 270.372,817.256 270.419 C 811.528 270.507,810.622 271.415,814.500 273.182 C 815.875 273.808,817.000 274.672,817.000 275.101 C 817.000 277.554,813.366 276.397,799.386 269.491 C 790.841 265.271,783.581 262.085,783.254 262.413 C 781.629 264.038,794.335 273.595,806.500 279.897 L 812.500 283.005 800.444 282.363 C 792.241 281.927,787.714 282.083,786.279 282.851 C 784.495 283.805,783.193 283.386,777.835 280.132 C 769.688 275.184,762.555 271.583,755.876 269.045 C 751.361 267.329,750.341 267.230,749.177 268.394 C 746.847 270.724,749.497 273.752,756.739 277.036 C 760.402 278.696,767.180 282.116,771.801 284.636 L 780.204 289.216 775.852 293.667 C 769.556 300.105,761.633 306.000,759.276 306.000 C 756.502 306.000,751.463 300.633,748.510 294.533 C 746.565 290.516,746.068 290.005,746.047 292.000 C 746.009 295.709,748.659 303.742,751.544 308.666 C 753.356 311.757,754.735 313.000,756.352 313.000 C 758.966 313.000,766.568 306.804,776.235 296.793 L 782.970 289.818 786.735 292.127 C 792.286 295.532,794.375 297.650,793.010 298.494 C 791.925 299.165,786.482 298.506,783.429 297.334 C 782.643 297.033,782.000 297.275,782.000 297.873 C 782.000 300.576,798.271 306.129,800.287 304.113 C 802.196 302.204,799.891 298.054,793.329 291.589 C 789.658 287.972,786.952 284.714,787.316 284.351 C 787.949 283.717,790.251 284.388,803.379 289.032 C 807.340 290.433,811.714 291.111,816.786 291.111 C 825.935 291.111,827.115 290.037,824.603 284.000 C 824.064 282.705,826.393 282.468,841.685 282.269 C 860.697 282.020,862.910 281.442,861.528 277.087 C 860.672 274.390,852.387 268.160,844.250 264.094 C 839.307 261.624,838.000 260.492,838.000 258.677 C 838.000 257.415,837.339 255.509,836.532 254.441 C 835.724 253.374,835.049 252.096,835.032 251.601 C 834.999 250.682,848.858 251.362,854.684 252.566 C 857.245 253.095,858.339 252.752,860.278 250.812 C 862.038 249.053,863.098 248.659,864.201 249.355 C 865.345 250.077,869.031 247.952,879.385 240.600 L 893.059 230.891 890.841 227.696 C 883.073 216.505,872.710 204.058,871.675 204.676 C 869.534 205.954,857.000 216.217,857.000 216.692 C 857.000 217.419,867.438 230.933,868.000 230.933 C 868.275 230.933,869.550 230.058,870.834 228.988 L 873.169 227.043 869.584 222.668 C 867.613 220.262,866.000 218.034,866.000 217.715 C 866.000 217.397,867.271 216.231,868.825 215.125 L 871.650 213.113 877.400 220.583 C 880.562 224.691,882.995 228.516,882.806 229.083 C 882.616 229.651,878.870 232.761,874.481 235.995 L 866.500 241.874 864.500 239.187 C 857.959 230.398,842.204 211.314,835.652 204.243 C 831.443 199.701,828.000 195.640,828.000 195.218 C 828.000 194.795,831.306 191.166,835.346 187.153 L 842.692 179.856 849.518 187.483 L 856.344 195.111 853.658 197.797 L 850.971 200.484 847.135 196.029 L 843.298 191.575 840.614 193.333 L 837.930 195.092 839.883 197.796 C 840.958 199.283,843.878 202.486,846.373 204.913 L 850.909 209.327 858.469 202.561 L 866.029 195.794 858.100 187.147 C 853.740 182.391,848.446 176.847,846.336 174.827 L 842.500 171.153 830.119 183.171 M172.637 185.090 C 166.662 191.699,161.937 197.213,162.137 197.343 C 162.337 197.472,165.710 200.373,169.634 203.789 C 173.557 207.205,177.157 209.970,177.634 209.934 C 178.110 209.898,181.040 206.887,184.145 203.245 L 189.789 196.622 187.234 194.612 L 184.680 192.603 180.794 196.982 L 176.907 201.362 174.292 198.747 L 171.677 196.132 177.942 189.066 C 181.387 185.180,184.497 182.022,184.853 182.048 C 185.209 182.074,188.836 185.187,192.914 188.965 L 200.327 195.834 197.414 199.307 C 195.811 201.217,190.354 207.545,185.286 213.368 C 180.218 219.191,172.855 228.235,168.924 233.465 C 164.354 239.544,161.353 242.708,160.603 242.237 C 159.958 241.832,155.930 239.105,151.652 236.177 L 143.874 230.854 146.264 227.677 C 147.578 225.930,150.384 222.162,152.499 219.305 L 156.345 214.110 159.173 216.123 C 160.728 217.230,162.000 218.358,162.000 218.628 C 162.000 218.899,160.403 221.212,158.451 223.768 L 154.901 228.417 157.201 230.186 C 158.465 231.159,159.776 231.966,160.113 231.978 C 160.755 232.001,171.000 218.549,171.000 217.682 C 171.000 217.268,167.414 214.361,156.350 205.810 C 155.565 205.203,151.955 209.211,144.947 218.474 C 139.307 225.927,134.874 232.203,135.096 232.420 C 136.242 233.540,161.584 251.280,162.467 251.581 C 163.035 251.774,165.286 249.360,167.469 246.216 C 174.426 236.196,190.460 216.765,200.371 206.341 L 209.969 196.246 198.000 184.623 C 191.417 178.230,185.461 173.016,184.765 173.036 C 184.069 173.056,178.612 178.480,172.637 185.090 M485.000 203.134 C 387.370 213.112,301.216 269.205,252.277 354.654 C 234.150 386.303,221.732 422.555,215.848 461.000 C 213.958 473.349,213.626 479.654,213.613 503.500 C 213.595 534.915,215.022 547.782,221.482 574.500 C 246.928 679.726,326.353 762.595,431.366 793.483 C 472.761 805.659,521.483 808.360,565.500 800.921 C 660.251 784.907,741.905 724.250,784.816 638.000 C 806.842 593.728,816.285 553.629,816.373 504.000 C 816.429 472.298,813.269 449.061,804.962 420.109 C 770.774 300.955,667.024 215.130,542.576 203.060 C 529.902 201.830,497.347 201.873,485.000 203.134 M542.576 214.079 C 614.206 221.156,680.548 254.434,729.145 307.666 C 738.890 318.341,752.000 334.983,752.000 336.679 C 752.000 338.710,716.273 331.477,696.049 325.353 C 674.390 318.794,632.595 302.571,613.000 293.118 C 608.325 290.863,604.187 289.013,603.805 289.009 C 603.422 289.004,596.285 293.050,587.945 298.000 C 579.605 302.950,572.588 307.000,572.352 307.000 C 572.115 307.000,559.061 296.640,543.342 283.977 L 514.762 260.954 510.631 264.283 C 504.010 269.618,459.624 305.196,458.251 306.268 C 457.368 306.957,452.462 304.535,441.477 297.986 L 425.951 288.730 414.725 293.995 C 385.586 307.664,342.547 323.308,315.744 329.975 C 300.147 333.854,277.938 338.107,277.097 337.377 C 276.424 336.793,290.262 319.147,299.819 308.400 C 320.343 285.321,349.431 262.660,379.099 246.636 C 411.464 229.155,452.071 217.148,490.500 213.696 C 499.945 212.847,532.535 213.087,542.576 214.079 M209.915 232.600 C 208.192 234.674,207.556 249.122,208.709 260.000 L 209.504 267.500 211.466 263.500 C 212.730 260.924,213.568 256.741,213.820 251.750 C 214.035 247.488,214.443 244.000,214.725 244.000 C 215.008 244.000,219.214 247.783,224.073 252.407 C 228.932 257.031,238.411 264.767,245.137 269.598 C 259.459 279.886,264.000 283.717,264.000 285.514 C 264.000 286.676,261.479 288.113,253.000 291.783 L 250.500 292.865 253.068 292.932 C 254.481 292.970,257.856 292.364,260.568 291.587 C 263.281 290.810,267.618 289.936,270.206 289.646 C 279.068 288.651,281.605 285.351,275.926 282.203 C 274.236 281.267,271.648 279.463,270.176 278.196 C 268.704 276.929,263.675 273.363,259.000 270.272 C 239.705 257.516,233.916 252.345,221.756 237.000 C 216.953 230.938,212.631 229.332,209.915 232.600 M886.206 249.028 C 878.894 253.791,872.462 258.138,871.911 258.689 C 871.243 259.357,873.206 263.318,877.813 270.595 C 885.952 283.453,896.252 302.180,901.854 314.305 L 905.852 322.960 909.176 321.550 C 920.891 316.580,936.473 309.082,936.738 308.286 C 937.234 306.798,923.176 279.000,921.928 279.000 C 921.312 279.000,917.094 281.024,912.556 283.498 L 904.304 287.996 908.402 295.991 C 910.656 300.388,912.976 303.989,913.559 303.993 C 914.141 303.997,915.487 303.364,916.550 302.587 C 918.592 301.094,918.604 301.137,913.254 290.944 C 913.094 290.638,914.474 289.668,916.321 288.787 L 919.679 287.185 924.044 296.089 C 926.760 301.631,928.048 305.329,927.454 305.884 C 926.573 306.708,910.429 314.000,909.486 314.000 C 909.256 314.000,905.926 307.813,902.085 300.250 C 896.535 289.322,887.639 273.552,880.609 262.177 C 879.776 260.829,896.458 249.547,897.934 250.459 C 899.018 251.129,908.003 265.712,907.994 266.785 C 907.990 267.178,906.651 268.260,905.018 269.190 L 902.048 270.880 899.274 265.941 C 897.748 263.224,896.133 261.002,895.684 261.001 C 894.279 260.999,891.000 263.031,891.000 263.903 C 891.000 265.257,899.192 279.000,899.998 279.000 C 901.261 279.000,917.000 269.827,917.000 269.092 C 917.000 268.156,907.258 251.748,902.954 245.434 L 899.500 240.367 886.206 249.028 M124.707 247.250 C 115.716 261.321,110.816 270.215,111.621 271.005 C 112.104 271.479,116.072 273.899,120.439 276.382 L 128.378 280.896 133.058 273.198 L 137.739 265.500 135.619 263.772 C 134.454 262.822,133.230 262.034,132.899 262.022 C 132.569 262.010,130.884 264.277,129.154 267.059 L 126.009 272.118 123.005 270.344 C 121.352 269.367,120.000 268.309,120.000 267.993 C 120.000 267.676,122.279 263.714,125.064 259.188 C 128.303 253.925,130.554 251.209,131.314 251.650 C 134.998 253.791,148.000 262.239,148.000 262.492 C 148.000 262.657,145.056 267.676,141.457 273.646 C 137.859 279.616,131.336 291.555,126.962 300.179 L 119.011 315.857 109.505 311.694 C 104.277 309.405,100.000 307.050,100.000 306.463 C 100.000 304.405,107.939 289.000,108.999 289.000 C 109.588 289.000,111.166 289.718,112.504 290.595 L 114.938 292.189 112.390 297.216 C 109.765 302.397,109.930 303.301,113.711 304.443 C 115.678 305.036,116.368 304.223,119.966 297.068 L 124.009 289.027 115.754 284.769 C 111.214 282.428,107.044 280.384,106.487 280.228 C 105.438 279.935,90.239 309.590,91.045 310.357 C 91.824 311.098,121.007 324.003,121.774 323.946 C 122.173 323.916,125.944 316.828,130.154 308.196 C 134.363 299.563,142.120 285.332,147.391 276.570 C 152.661 267.809,156.867 260.542,156.737 260.422 C 155.868 259.621,128.867 242.000,128.509 242.000 C 128.263 242.000,126.552 244.363,124.707 247.250 M197.199 255.201 C 196.451 255.949,192.419 256.445,186.517 256.516 C 181.303 256.578,176.736 256.931,176.368 257.299 C 175.514 258.153,185.447 271.114,191.433 276.958 L 196.000 281.416 196.000 293.161 C 196.000 305.454,197.087 310.000,200.026 310.000 C 200.963 310.000,202.893 310.915,204.315 312.033 C 206.977 314.127,217.375 328.958,216.673 329.660 C 216.456 329.877,211.708 328.272,206.120 326.095 L 195.960 322.135 197.872 324.821 C 200.650 328.722,209.281 336.635,218.834 344.040 C 223.418 347.593,228.206 351.339,229.475 352.364 C 231.481 353.984,232.252 354.072,235.391 353.036 C 237.376 352.381,239.000 351.272,239.000 350.572 C 239.000 349.873,237.697 347.502,236.105 345.304 C 234.513 343.106,232.430 339.798,231.476 337.953 C 230.521 336.108,229.135 333.992,228.395 333.253 C 227.656 332.513,223.805 327.608,219.838 322.353 C 215.871 317.099,210.688 310.644,208.320 308.011 L 204.014 303.222 206.110 298.485 C 208.092 294.003,208.132 293.309,206.855 285.624 C 205.350 276.571,205.306 274.419,206.430 264.855 C 207.135 258.850,207.008 258.008,205.105 256.105 C 202.775 253.775,199.051 253.349,197.199 255.201 M193.559 260.000 C 195.435 260.000,198.187 264.350,197.478 266.197 C 197.049 267.316,195.948 266.713,192.955 263.720 C 188.668 259.432,188.130 258.452,190.582 259.393 C 191.452 259.727,192.791 260.000,193.559 260.000 M216.250 264.989 C 211.824 267.688,212.168 268.581,217.472 268.159 L 221.945 267.803 220.364 270.972 C 218.878 273.951,218.903 274.271,220.781 276.320 C 222.941 278.676,228.000 288.261,228.000 289.997 C 228.000 290.581,226.631 290.048,224.959 288.811 C 222.596 287.065,221.535 286.802,220.209 287.633 C 217.780 289.156,217.622 292.031,219.573 299.220 C 220.511 302.674,221.494 307.075,221.758 309.000 C 222.388 313.606,223.635 315.000,227.122 315.000 C 229.481 315.000,230.000 314.574,230.000 312.635 C 230.000 311.334,229.174 309.197,228.165 307.885 C 225.092 303.890,220.635 295.032,221.342 294.324 C 222.439 293.228,227.032 298.175,229.598 303.214 C 232.461 308.840,234.828 310.396,238.435 309.025 C 241.489 307.863,241.627 306.699,239.130 303.154 C 236.432 299.326,229.979 285.000,230.952 285.000 C 232.111 285.000,253.936 306.692,257.485 311.370 L 260.421 315.241 258.069 317.145 C 256.775 318.193,255.893 319.223,256.108 319.433 C 256.324 319.644,258.975 319.971,262.000 320.158 C 267.010 320.470,267.528 320.306,267.809 318.327 C 268.500 313.475,260.162 301.568,252.075 295.857 C 249.559 294.081,243.763 289.003,239.196 284.573 C 234.629 280.143,230.300 276.188,229.576 275.783 C 228.326 275.083,224.569 270.000,225.302 270.000 C 225.494 270.000,228.145 272.475,231.194 275.500 C 237.114 281.373,240.648 282.449,244.559 279.571 C 246.765 277.947,245.841 277.315,240.500 276.793 C 237.965 276.545,237.089 275.657,234.849 271.059 C 233.391 268.067,231.393 265.029,230.408 264.309 C 227.697 262.327,220.012 262.696,216.250 264.989 M152.000 277.161 C 149.177 278.329,147.815 277.458,164.279 285.017 C 169.438 287.386,171.708 289.115,173.779 292.255 C 176.268 296.029,176.529 296.182,176.838 294.053 C 177.023 292.772,175.898 289.233,174.338 286.188 C 172.115 281.851,170.525 280.154,167.000 278.354 C 162.220 275.913,156.177 275.433,152.000 277.161 M543.000 302.018 C 557.575 311.182,570.041 318.990,570.703 319.369 C 571.364 319.749,579.188 316.412,588.090 311.955 L 604.276 303.850 619.388 309.842 C 657.281 324.866,703.534 336.740,754.713 344.584 C 757.499 345.011,758.659 346.262,763.436 353.984 C 768.710 362.510,778.913 382.061,782.492 390.500 C 785.096 396.640,791.000 412.981,791.000 414.050 C 791.000 414.609,784.627 415.000,775.500 415.000 L 760.000 415.000 760.000 401.203 L 760.000 387.406 764.547 380.483 C 768.149 374.999,769.033 372.826,768.797 370.030 C 768.570 367.332,768.008 366.430,766.412 366.202 C 763.513 365.787,761.564 368.317,762.884 370.783 C 765.085 374.896,763.865 375.000,713.500 375.000 C 663.135 375.000,661.915 374.896,664.116 370.783 C 665.436 368.317,663.487 365.787,660.588 366.202 C 658.992 366.430,658.430 367.332,658.203 370.030 C 657.967 372.826,658.851 374.999,662.453 380.483 L 667.000 387.406 667.000 401.203 L 667.000 415.000 651.934 415.000 C 634.877 415.000,632.541 414.368,633.497 410.014 C 634.241 406.624,631.720 404.544,628.776 406.120 C 625.343 407.957,626.884 413.715,633.105 422.304 C 635.875 426.127,636.000 426.769,636.000 437.150 L 636.000 448.000 627.539 448.000 L 619.077 448.000 618.116 444.250 C 617.588 442.188,614.839 431.735,612.009 421.023 C 608.944 409.425,607.276 401.408,607.883 401.206 C 610.981 400.173,615.455 396.151,616.069 393.848 C 616.457 392.390,619.863 388.257,623.637 384.665 C 629.756 378.842,630.337 377.969,629.000 376.611 C 627.659 375.250,626.864 375.492,621.500 378.891 C 618.200 380.982,612.350 384.000,608.500 385.597 L 601.500 388.500 514.500 388.500 L 427.500 388.500 420.500 385.447 C 416.650 383.768,410.953 380.762,407.841 378.768 C 402.424 375.297,402.112 375.219,400.547 376.948 C 399.006 378.650,399.314 379.093,405.889 384.627 C 410.787 388.750,413.056 391.406,413.505 393.540 C 413.955 395.682,415.417 397.386,418.450 399.305 L 422.756 402.029 419.887 412.765 C 418.310 418.669,415.552 428.900,413.760 435.500 L 410.500 447.500 401.750 447.789 L 393.000 448.078 393.000 439.104 C 393.000 429.007,393.677 426.614,398.544 419.500 C 402.808 413.269,403.810 408.953,401.523 406.666 C 398.972 404.115,395.600 406.249,396.339 409.946 C 397.274 414.621,395.922 415.000,378.300 415.000 L 362.000 415.000 362.006 403.750 C 362.012 390.414,362.851 386.894,367.708 379.834 C 370.357 375.983,371.382 373.417,371.431 370.510 C 371.494 366.857,371.255 366.472,368.744 366.183 C 365.508 365.811,364.058 368.261,365.832 371.103 C 366.771 372.607,366.630 373.127,365.056 373.970 C 362.117 375.543,268.350 375.376,267.374 373.796 C 266.964 373.134,266.600 371.229,266.565 369.564 C 266.492 366.185,263.956 364.962,261.408 367.077 C 259.303 368.824,260.427 373.387,264.467 379.500 C 269.883 387.692,270.000 388.168,270.000 401.934 L 270.000 415.000 254.028 415.000 L 238.056 415.000 241.011 406.629 C 247.133 389.282,257.376 368.009,267.283 352.062 C 269.525 348.453,271.406 345.410,271.463 345.301 C 271.519 345.191,278.877 343.957,287.814 342.560 C 327.714 336.319,379.233 322.422,412.598 308.902 L 424.697 303.999 441.388 312.005 L 458.078 320.011 486.289 302.126 C 501.805 292.289,514.950 284.491,515.500 284.799 C 516.050 285.106,528.425 292.855,543.000 302.018 M925.500 326.139 C 917.250 329.462,910.376 332.301,910.225 332.449 C 910.074 332.596,910.901 334.918,912.063 337.608 C 915.822 346.313,924.958 374.082,928.632 387.971 C 930.600 395.412,932.275 401.568,932.355 401.650 C 932.435 401.733,939.700 400.110,948.500 398.045 C 962.581 394.740,964.538 394.036,964.815 392.177 C 965.114 390.175,961.649 375.952,958.406 365.865 L 956.916 361.231 948.015 363.892 C 943.119 365.355,938.798 366.869,938.412 367.255 C 938.026 367.641,938.738 371.567,939.994 375.978 C 942.000 383.023,942.558 384.000,944.580 384.000 C 947.868 384.000,948.339 382.583,946.962 376.840 C 945.628 371.283,946.308 370.046,950.711 370.015 C 952.477 370.003,953.147 370.857,954.032 374.250 C 954.643 376.588,955.783 380.714,956.568 383.420 C 957.352 386.126,957.806 388.527,957.577 388.756 C 956.876 389.457,937.791 394.124,937.365 393.699 C 937.146 393.479,935.386 387.720,933.454 380.900 C 931.521 374.080,927.658 361.975,924.868 354.000 C 922.078 346.025,919.729 338.614,919.648 337.531 C 919.529 335.952,921.283 334.820,928.500 331.816 C 933.450 329.756,937.738 328.054,938.028 328.035 C 938.706 327.990,945.000 344.591,945.000 346.423 C 945.000 347.183,943.653 348.274,942.006 348.848 C 938.664 350.013,938.264 349.603,936.054 342.750 C 934.826 338.940,932.987 338.090,930.024 339.964 C 928.757 340.765,928.969 342.114,931.516 349.463 C 933.149 354.173,934.939 357.857,935.493 357.649 C 936.047 357.441,940.438 355.992,945.252 354.429 C 953.051 351.896,953.937 351.364,953.388 349.543 C 950.881 341.216,942.351 320.009,941.524 320.049 C 940.961 320.076,933.750 322.817,925.500 326.139 M82.199 331.288 C 76.403 346.387,74.679 352.087,75.640 352.966 C 77.138 354.335,93.097 359.236,93.793 358.541 C 95.142 357.191,99.867 342.476,99.174 341.779 C 98.780 341.382,97.393 340.932,96.092 340.779 C 94.085 340.542,93.482 341.209,92.113 345.179 C 91.226 347.753,90.235 350.117,89.912 350.434 C 88.923 351.402,82.851 348.838,83.276 347.631 C 83.494 347.009,84.977 342.788,86.570 338.250 C 88.162 333.713,89.923 330.016,90.483 330.035 C 92.784 330.114,109.482 337.697,109.260 338.562 C 109.129 339.078,106.376 347.150,103.144 356.500 C 99.911 365.850,96.013 378.338,94.482 384.250 C 92.251 392.864,91.343 395.000,89.912 395.000 C 87.632 395.000,71.932 391.266,71.220 390.554 C 70.925 390.259,71.802 385.851,73.168 380.759 C 75.591 371.727,75.721 371.505,78.486 371.710 C 82.687 372.022,83.078 372.988,81.365 378.831 C 80.509 381.752,79.964 384.271,80.154 384.430 C 80.344 384.589,81.717 385.010,83.205 385.367 C 86.090 386.059,85.853 386.555,90.578 369.920 C 91.181 367.799,72.266 361.952,71.069 363.889 C 69.965 365.675,62.633 394.966,63.158 395.491 C 63.694 396.027,93.617 403.005,95.312 402.989 C 95.983 402.983,97.531 398.739,98.870 393.239 C 102.046 380.184,109.007 357.882,113.920 345.012 C 116.123 339.244,117.604 334.216,117.212 333.839 C 116.591 333.240,111.541 331.155,90.809 322.936 L 86.119 321.076 82.199 331.288 M356.000 413.000 L 356.000 433.000 371.500 433.000 L 387.000 433.000 387.000 449.500 L 387.000 466.000 395.500 466.000 L 404.000 466.000 404.000 472.000 L 404.000 478.000 385.000 478.000 L 366.000 478.000 366.000 467.500 L 366.000 457.000 352.027 457.000 L 338.053 457.000 337.777 442.250 L 337.500 427.500 315.750 427.230 L 294.000 426.961 294.000 441.959 L 294.000 456.957 274.750 457.228 L 255.500 457.500 255.000 544.993 L 254.500 632.486 250.616 623.993 C 238.217 596.877,229.311 564.813,225.897 535.000 C 222.635 506.500,225.396 462.846,232.112 436.750 L 233.077 433.000 254.539 433.000 L 276.000 433.000 276.000 413.667 C 276.000 403.033,276.300 394.033,276.667 393.667 C 277.033 393.300,295.033 393.000,316.667 393.000 L 356.000 393.000 356.000 413.000 M753.000 413.000 L 753.000 433.000 775.000 433.000 C 787.100 433.000,797.000 433.163,797.000 433.362 C 797.000 433.562,798.076 439.074,799.391 445.612 C 804.025 468.653,804.502 474.215,804.447 504.500 C 804.401 529.474,804.088 535.362,802.194 546.913 C 799.377 564.093,794.973 581.957,789.994 596.396 C 785.740 608.733,776.486 630.909,774.948 632.450 C 774.351 633.048,774.000 600.763,774.000 545.200 L 774.000 457.000 755.000 457.000 L 736.000 457.000 736.000 442.000 L 736.000 427.000 714.000 427.000 L 692.000 427.000 692.000 441.973 L 692.000 456.945 677.750 457.223 L 663.500 457.500 663.215 467.750 L 662.930 478.000 643.965 478.000 L 625.000 478.000 625.000 472.000 L 625.000 466.000 634.000 466.000 L 643.000 466.000 643.000 449.500 L 643.000 433.000 658.500 433.000 L 674.000 433.000 674.000 413.000 L 674.000 393.000 713.500 393.000 L 753.000 393.000 753.000 413.000 M37.584 401.750 C 44.652 412.465,46.963 419.761,47.005 431.500 C 47.066 448.109,51.310 459.470,61.116 469.276 C 66.700 474.860,67.000 475.411,67.000 480.080 C 67.000 482.786,66.589 485.000,66.086 485.000 C 65.583 485.000,63.777 487.266,62.073 490.036 C 60.368 492.806,58.279 495.339,57.430 495.665 C 56.542 496.006,54.010 494.910,51.465 493.082 C 45.756 488.982,39.888 486.417,32.018 484.581 L 25.699 483.107 29.226 486.804 C 37.893 495.886,40.428 501.206,43.937 517.677 C 45.012 522.724,47.017 529.073,48.392 531.787 C 51.728 538.371,59.855 547.115,65.345 550.027 C 69.455 552.207,69.843 552.756,70.435 557.224 C 70.892 560.667,70.643 562.845,69.570 564.781 C 68.741 566.276,67.375 569.239,66.535 571.364 C 64.764 575.841,64.304 575.848,52.378 571.584 C 48.461 570.184,41.936 568.784,37.878 568.473 C 30.579 567.915,30.527 567.928,33.000 569.705 C 43.056 576.926,48.632 584.307,54.000 597.500 C 56.095 602.650,59.240 608.941,60.987 611.482 C 64.918 617.194,74.011 624.462,80.000 626.679 C 86.007 628.902,86.486 629.342,87.846 633.879 C 88.794 637.045,88.714 638.981,87.423 644.141 C 85.353 652.415,84.337 653.175,77.701 651.408 C 72.409 650.000,57.410 649.663,53.160 650.857 C 51.031 651.455,51.255 651.725,55.660 653.861 C 65.303 658.537,69.762 662.749,77.542 674.532 C 88.235 690.725,96.719 697.418,110.041 700.169 C 115.182 701.231,115.868 701.695,117.798 705.417 C 119.644 708.977,119.824 710.461,119.208 717.000 L 118.500 724.500 107.000 725.052 C 99.810 725.397,93.456 726.296,90.046 727.450 L 84.592 729.296 91.046 731.398 C 100.262 734.400,105.588 737.842,113.000 745.589 C 124.560 757.671,126.392 759.190,133.500 762.584 C 140.582 765.965,151.723 768.427,154.725 767.275 C 155.852 766.843,157.471 767.938,159.930 770.799 C 163.357 774.783,163.500 775.260,163.500 782.673 L 163.500 790.396 155.196 791.692 C 149.855 792.526,144.146 794.287,139.196 796.626 L 131.500 800.263 139.739 801.509 C 149.677 803.011,156.205 806.071,165.500 813.585 C 178.114 823.781,192.210 828.355,204.156 826.129 C 209.202 825.189,209.691 825.285,212.919 827.862 C 214.800 829.362,216.673 831.245,217.082 832.045 C 218.283 834.397,220.293 844.620,219.828 846.015 C 219.594 846.719,216.078 848.375,212.017 849.693 C 207.955 851.012,201.452 854.208,197.566 856.795 L 190.500 861.500 201.000 862.085 C 212.753 862.740,215.157 863.495,229.802 871.129 L 240.104 876.500 251.830 876.500 C 261.030 876.500,264.429 876.107,267.602 874.677 L 271.648 872.855 278.430 877.177 L 285.211 881.500 247.050 882.000 L 208.888 882.500 224.194 893.629 C 269.112 926.288,311.790 948.397,361.574 964.798 C 384.448 972.334,382.192 972.455,384.988 963.538 C 386.288 959.392,387.754 956.000,388.245 956.000 C 388.736 956.000,393.494 957.093,398.819 958.429 C 470.902 976.515,550.300 977.030,623.073 959.885 C 630.458 958.145,637.327 956.672,638.339 956.611 C 639.767 956.525,640.675 958.064,642.406 963.500 C 644.619 970.454,644.656 970.498,647.994 970.222 C 653.060 969.803,684.452 959.036,702.152 951.646 C 739.141 936.203,773.189 916.777,806.389 892.174 L 819.444 882.500 781.472 882.222 L 743.500 881.944 749.831 877.896 L 756.162 873.849 759.831 875.590 C 765.107 878.094,776.085 878.527,784.500 876.561 C 788.350 875.662,796.000 872.733,801.500 870.052 C 815.104 863.421,821.468 861.704,830.715 862.171 L 838.205 862.549 834.353 859.259 C 829.002 854.690,817.395 849.000,813.425 849.000 C 811.606 849.000,809.814 848.508,809.442 847.906 C 809.070 847.305,809.365 843.441,810.097 839.321 C 811.296 832.575,811.797 831.537,815.121 828.904 C 818.277 826.405,819.201 826.126,821.472 826.989 C 827.362 829.229,840.920 827.122,849.769 822.593 C 852.371 821.261,857.875 817.629,862.000 814.523 C 872.306 806.760,882.030 802.114,890.012 801.137 L 896.500 800.342 888.605 796.491 C 883.082 793.797,879.027 792.529,875.105 792.268 C 864.424 791.559,864.923 792.019,865.265 783.194 C 865.525 776.509,865.951 774.931,868.346 771.791 C 870.782 768.596,871.529 768.212,874.388 768.676 C 878.629 769.364,888.931 766.695,895.395 763.234 C 898.203 761.730,905.675 755.530,912.000 749.457 C 925.845 736.161,927.747 734.779,936.040 731.991 C 939.593 730.796,942.660 729.662,942.856 729.470 C 943.051 729.279,939.960 728.134,935.987 726.927 C 930.115 725.144,927.199 724.830,920.410 725.254 C 914.785 725.605,911.765 725.404,911.159 724.638 C 910.665 724.012,910.020 720.359,909.727 716.521 C 908.992 706.901,911.134 702.514,916.947 701.734 C 923.201 700.895,933.408 695.634,939.087 690.322 C 941.913 687.678,947.049 681.236,950.498 676.007 C 957.750 665.014,965.969 656.797,972.749 653.761 C 977.234 651.754,977.360 651.595,975.000 650.917 C 970.108 649.513,956.366 649.956,950.992 651.692 C 945.957 653.318,945.700 653.310,944.377 651.501 C 943.620 650.465,943.000 648.813,943.000 647.829 C 943.000 646.845,942.330 644.344,941.512 642.270 C 940.239 639.043,940.218 637.855,941.367 634.020 C 942.496 630.251,943.196 629.440,945.773 628.913 C 950.781 627.888,957.349 623.470,963.100 617.258 C 968.650 611.262,970.069 608.843,976.943 593.674 C 981.961 582.597,986.765 576.007,992.670 572.095 C 998.440 568.273,997.073 567.562,986.477 568.878 C 981.118 569.543,976.752 570.825,972.661 572.935 C 967.043 575.833,966.568 575.919,964.840 574.355 C 963.828 573.439,963.000 572.148,963.000 571.485 C 963.000 570.822,961.864 568.605,960.476 566.560 C 958.317 563.378,958.045 562.144,958.592 558.020 C 959.178 553.602,959.561 553.051,963.181 551.418 C 972.162 547.369,981.270 533.554,984.556 519.000 C 986.482 510.471,990.518 498.740,992.809 495.014 C 993.659 493.631,996.187 490.530,998.427 488.122 L 1002.500 483.745 997.890 484.334 C 990.941 485.222,982.824 488.602,978.262 492.508 C 976.018 494.429,973.725 496.000,973.167 496.000 C 972.609 496.000,971.105 494.643,969.826 492.984 C 968.547 491.324,966.432 488.607,965.128 486.944 C 963.726 485.157,962.630 482.243,962.449 479.821 C 962.165 476.003,962.502 475.394,967.367 470.948 C 972.328 466.414,976.986 458.767,979.180 451.558 C 979.692 449.876,980.755 441.997,981.543 434.049 C 983.242 416.904,984.810 410.970,989.469 404.045 C 992.647 399.324,992.754 398.940,990.722 399.551 C 984.110 401.539,975.585 406.574,971.287 411.028 C 968.654 413.757,965.956 415.992,965.290 415.995 C 964.625 415.998,962.404 414.188,960.354 411.972 C 953.836 404.927,949.454 405.655,945.575 414.427 C 944.281 417.351,942.696 420.070,942.050 420.469 C 941.405 420.867,938.609 420.218,935.836 419.025 C 930.470 416.716,920.373 415.295,913.047 415.817 L 908.594 416.135 914.019 419.101 C 923.690 424.390,927.064 428.947,931.474 442.672 C 932.918 447.166,935.806 453.466,937.891 456.672 C 941.933 462.884,950.346 471.289,954.347 473.112 C 956.269 473.988,956.907 475.240,957.427 479.164 C 957.991 483.410,957.759 484.512,955.792 486.930 C 954.531 488.480,952.733 491.155,951.797 492.874 C 949.674 496.769,947.910 496.792,942.002 493.001 C 937.465 490.090,924.174 486.000,919.250 486.000 C 917.114 486.000,917.428 486.480,921.857 489.981 C 928.604 495.314,931.823 501.116,933.640 511.216 C 936.537 527.317,938.125 532.020,943.252 539.685 C 945.977 543.759,949.558 548.085,951.210 549.297 C 954.014 551.355,954.178 551.830,953.688 556.500 C 953.250 560.684,952.438 562.275,948.711 566.250 C 946.262 568.863,943.484 571.000,942.538 571.000 C 941.592 571.000,939.066 569.500,936.925 567.667 C 931.913 563.378,924.861 559.590,918.306 557.665 L 913.112 556.141 917.614 561.939 C 923.650 569.711,925.000 574.701,925.000 589.233 C 925.000 599.377,925.382 602.285,927.571 608.807 C 928.985 613.019,931.936 619.093,934.128 622.304 L 938.113 628.143 936.476 633.072 C 935.576 635.782,934.384 638.000,933.829 638.000 C 933.273 638.000,930.978 639.575,928.729 641.500 C 926.480 643.425,924.226 645.000,923.720 645.000 C 923.214 645.000,919.582 641.733,915.650 637.739 C 911.360 633.383,906.004 629.161,902.261 627.187 L 896.023 623.895 899.761 630.170 C 903.050 635.690,903.542 637.371,903.852 644.129 C 904.067 648.837,903.583 654.538,902.602 658.853 C 899.753 671.378,901.135 684.413,906.417 694.836 L 908.848 699.634 906.674 703.478 C 904.274 707.720,895.261 713.328,891.686 712.803 C 890.391 712.613,888.389 710.391,886.325 706.853 C 883.362 701.772,870.904 689.000,868.912 689.000 C 868.472 689.000,869.093 691.138,870.291 693.750 C 871.959 697.385,872.467 700.378,872.455 706.500 C 872.442 713.536,871.977 715.584,868.593 723.500 C 863.779 734.759,862.678 746.672,865.411 757.917 L 867.094 764.842 864.297 768.883 C 862.544 771.415,860.705 772.938,859.372 772.962 C 858.202 772.983,855.581 773.695,853.549 774.544 C 848.164 776.794,846.563 775.817,844.002 768.722 C 841.781 762.567,835.185 752.251,831.153 748.626 C 829.070 746.754,829.069 746.755,830.034 750.119 C 831.583 755.520,831.174 765.520,829.191 770.739 C 828.196 773.358,825.480 778.425,823.155 782.000 C 816.952 791.541,814.729 799.324,814.559 812.097 L 814.418 822.694 810.959 825.701 C 808.129 828.160,806.271 828.830,800.742 829.382 C 792.968 830.159,793.529 830.759,790.612 818.553 C 789.699 814.732,787.281 808.657,785.239 805.053 L 781.527 798.500 780.838 806.644 C 779.999 816.564,778.295 820.101,769.583 830.000 C 760.001 840.888,754.000 854.455,754.000 865.232 C 754.000 868.804,753.613 869.294,747.845 873.022 C 744.460 875.210,741.366 877.000,740.969 877.000 C 740.573 877.000,740.482 868.000,740.769 857.000 C 741.068 845.515,740.908 837.000,740.395 837.001 C 739.903 837.001,733.650 840.637,726.500 845.081 C 706.589 857.456,657.526 880.926,654.828 879.367 C 654.458 879.153,653.184 876.058,651.996 872.489 C 650.809 868.920,649.599 866.000,649.308 866.000 C 649.017 866.000,643.767 867.552,637.640 869.448 C 569.479 890.548,501.726 894.205,433.500 880.469 C 418.437 877.436,390.641 870.102,382.587 867.035 C 379.058 865.691,378.713 866.030,376.500 873.000 C 375.540 876.025,374.465 878.821,374.113 879.214 C 373.345 880.070,354.002 872.348,338.000 864.798 C 325.944 859.109,307.695 848.925,295.000 840.799 L 287.500 835.999 287.229 855.999 C 287.080 867.000,286.721 876.000,286.431 876.000 C 286.141 876.000,283.451 874.431,280.452 872.512 C 275.447 869.311,274.998 868.716,274.976 865.262 C 274.909 854.962,269.699 843.306,259.979 831.708 C 250.203 820.044,247.521 814.353,247.509 805.252 C 247.504 801.266,247.382 798.004,247.238 798.002 C 247.093 798.001,245.483 800.363,243.660 803.250 C 239.198 810.318,236.940 816.360,236.836 821.510 C 236.705 828.055,236.126 828.482,227.804 828.164 C 221.276 827.914,220.188 827.577,217.563 824.986 C 214.734 822.194,214.622 821.730,214.500 812.294 C 214.347 800.466,212.270 793.800,204.489 780.174 C 201.560 775.044,198.623 768.598,197.964 765.849 C 196.766 760.854,197.042 752.275,198.524 748.500 C 199.131 746.952,198.578 747.178,196.078 749.500 C 191.187 754.042,185.059 763.776,184.367 768.106 C 183.263 775.008,182.494 775.405,174.338 773.287 C 168.857 771.863,166.639 770.724,164.579 768.276 L 161.913 765.108 163.590 759.339 C 166.349 749.846,165.104 737.276,159.947 722.573 C 156.106 711.621,155.800 710.015,156.209 702.948 C 156.527 697.459,157.275 694.198,158.818 691.583 L 160.982 687.916 156.741 690.868 C 150.288 695.360,144.326 701.977,142.019 707.209 C 140.877 709.798,139.500 712.191,138.958 712.526 C 138.417 712.861,135.450 711.979,132.366 710.567 C 129.282 709.155,126.250 707.998,125.629 707.996 C 125.008 707.994,123.701 706.049,122.724 703.673 C 120.962 699.386,120.967 699.313,123.477 693.832 C 127.658 684.699,128.643 674.086,126.532 660.919 C 123.701 643.264,124.760 634.435,130.703 626.136 C 132.328 623.866,132.149 623.896,126.241 626.878 C 118.940 630.564,113.655 635.003,110.369 640.208 C 109.052 642.293,107.373 644.000,106.637 644.000 C 105.902 644.000,103.521 642.763,101.347 641.250 C 99.173 639.738,96.562 638.028,95.543 637.452 C 94.525 636.875,93.103 634.407,92.383 631.968 C 91.145 627.778,91.203 627.394,93.422 625.017 C 100.094 617.870,103.024 607.642,103.931 588.327 C 104.621 573.622,104.936 571.651,107.396 566.622 C 108.885 563.581,111.542 559.874,113.301 558.384 L 116.500 555.677 113.500 556.367 C 105.316 558.250,98.504 561.601,93.424 566.243 C 90.456 568.956,87.635 571.024,87.157 570.838 C 86.678 570.652,84.027 568.456,81.266 565.958 C 77.235 562.311,76.102 560.565,75.516 557.097 C 74.808 552.907,74.934 552.626,79.734 547.639 C 87.931 539.125,91.777 530.569,94.430 514.944 C 96.537 502.537,100.574 494.198,106.814 489.362 L 111.500 485.731 105.320 486.343 C 97.946 487.073,90.521 489.738,85.774 493.359 C 83.869 494.812,81.805 496.000,81.186 496.000 C 80.568 496.000,78.478 493.525,76.543 490.500 C 74.608 487.475,72.682 485.000,72.262 485.001 C 71.843 485.001,71.655 482.769,71.844 480.041 C 72.167 475.381,72.450 474.926,76.511 472.546 C 81.029 469.899,88.180 462.059,91.703 455.893 C 92.837 453.909,95.227 448.284,97.015 443.393 C 98.803 438.502,101.357 432.617,102.690 430.315 C 105.569 425.344,111.970 419.337,116.355 417.491 L 119.500 416.167 116.641 415.448 C 111.644 414.191,100.293 415.719,94.322 418.453 C 87.878 421.403,87.011 421.075,84.146 414.597 C 80.215 405.711,76.805 404.946,70.343 411.500 C 67.903 413.975,65.203 416.000,64.344 416.000 C 63.484 416.000,60.317 413.749,57.307 410.998 C 52.735 406.819,39.194 399.000,36.530 399.000 C 36.112 399.000,36.586 400.238,37.584 401.750 M454.697 404.250 C 454.412 405.488,451.143 424.275,447.434 446.000 L 440.689 485.500 428.845 485.502 L 417.000 485.504 417.000 481.560 C 417.000 478.404,428.284 433.282,435.584 407.250 L 437.056 402.000 446.136 402.000 C 455.040 402.000,455.207 402.044,454.697 404.250 M483.000 403.845 C 483.000 406.611,477.096 476.861,476.464 481.622 L 475.916 485.744 467.208 485.252 C 462.419 484.981,456.813 485.227,454.750 485.799 C 451.591 486.675,451.000 486.596,451.000 485.300 C 451.000 484.454,454.150 465.549,458.000 443.288 C 461.850 421.028,465.000 402.631,465.000 402.407 C 465.000 402.183,469.050 402.000,474.000 402.000 C 482.082 402.000,483.000 402.188,483.000 403.845 M511.000 443.750 L 511.000 485.500 498.250 485.500 L 485.500 485.500 488.973 443.750 L 492.447 402.000 501.723 402.000 L 511.000 402.000 511.000 443.750 M537.444 406.250 C 538.055 410.826,544.000 481.258,544.000 483.905 C 543.999 485.280,542.276 485.500,531.499 485.500 L 519.000 485.500 519.000 443.750 L 519.000 402.000 527.939 402.000 L 536.877 402.000 537.444 406.250 M571.396 441.750 C 575.141 463.613,578.435 482.716,578.717 484.201 C 579.229 486.896,579.221 486.900,575.365 485.831 C 573.239 485.242,567.436 484.972,562.469 485.229 L 553.439 485.698 550.182 446.099 C 548.391 424.320,546.943 405.488,546.963 404.250 C 546.999 402.090,547.352 402.000,555.794 402.000 L 564.589 402.000 571.396 441.750 M593.000 402.481 C 593.000 402.746,597.500 420.013,603.000 440.852 C 608.500 461.691,613.000 480.563,613.000 482.790 L 613.000 486.839 609.261 485.807 C 607.205 485.239,601.805 484.969,597.261 485.208 C 592.718 485.446,589.000 485.539,589.000 485.413 C 589.000 485.288,585.850 466.972,582.000 444.712 C 578.150 422.451,575.000 403.735,575.000 403.119 C 575.000 402.377,578.028 402.000,584.000 402.000 C 588.950 402.000,593.000 402.217,593.000 402.481 M450.628 499.677 C 455.746 501.894,470.828 501.910,476.692 499.706 C 480.061 498.439,481.484 498.356,483.942 499.284 L 487.000 500.438 487.000 551.602 L 487.000 602.765 468.750 611.026 C 458.713 615.569,448.138 620.341,445.250 621.631 L 440.000 623.975 440.000 562.132 L 440.000 500.289 443.250 499.247 C 445.038 498.673,446.558 498.158,446.628 498.102 C 446.698 498.046,448.498 498.755,450.628 499.677 M523.500 500.626 C 526.800 501.359,530.513 501.968,531.750 501.979 L 534.000 502.000 534.000 555.348 L 534.000 608.696 552.215 617.098 L 570.429 625.500 542.786 625.766 C 527.582 625.912,502.543 625.912,487.144 625.766 L 459.147 625.500 477.573 617.100 L 496.000 608.701 496.000 555.449 L 496.000 502.196 501.750 501.505 C 504.913 501.125,509.075 500.236,511.000 499.530 C 512.925 498.823,515.175 498.481,516.000 498.769 C 516.825 499.057,520.200 499.893,523.500 500.626 M552.628 499.650 C 557.775 501.844,572.879 501.909,578.792 499.763 C 582.173 498.536,583.711 498.442,586.042 499.322 L 589.000 500.438 589.000 561.719 C 589.000 595.424,588.612 623.000,588.137 623.000 C 587.663 623.000,577.425 618.518,565.387 613.040 L 543.500 603.079 543.241 551.626 L 542.982 500.173 545.741 499.165 C 547.258 498.611,548.558 498.122,548.628 498.079 C 548.698 498.036,550.498 498.743,552.628 499.650 M425.329 501.522 L 430.971 502.227 431.235 565.768 L 431.500 629.309 424.413 642.905 L 417.327 656.500 342.740 656.756 L 268.154 657.013 265.077 651.635 C 263.385 648.677,262.000 645.974,262.000 645.628 C 262.000 645.283,296.875 645.000,339.500 645.000 L 417.000 645.000 417.000 572.393 C 417.000 512.031,417.227 499.873,418.343 500.301 C 419.082 500.585,422.225 501.134,425.329 501.522 M613.000 572.500 L 613.000 645.000 690.500 645.000 C 733.125 645.000,768.000 645.168,768.000 645.374 C 768.000 646.337,762.784 654.934,761.608 655.910 C 760.660 656.697,739.107 656.939,686.390 656.756 L 612.500 656.500 605.267 643.000 L 598.035 629.500 598.017 565.890 L 598.000 502.279 604.250 501.279 C 607.688 500.729,611.063 500.216,611.750 500.139 C 612.740 500.029,613.000 515.092,613.000 572.500 M376.000 556.000 L 376.000 579.000 358.500 579.000 L 341.000 579.000 341.000 556.000 L 341.000 533.000 358.500 533.000 L 376.000 533.000 376.000 556.000 M688.769 555.750 L 688.500 578.500 671.250 578.774 L 654.000 579.047 654.000 556.024 L 654.000 533.000 671.519 533.000 L 689.038 533.000 688.769 555.750 M207.634 609.133 C 208.005 611.419,207.738 612.951,206.848 613.650 C 204.851 615.215,170.162 630.000,168.485 630.000 C 167.694 630.000,166.300 628.861,165.388 627.469 C 162.162 622.546,162.981 625.873,167.640 636.621 C 172.760 648.433,174.343 651.097,173.492 646.469 C 173.191 644.836,173.310 642.956,173.756 642.292 C 174.660 640.944,189.403 634.000,191.361 634.000 C 192.399 634.000,199.547 648.976,198.754 649.489 C 198.614 649.580,194.561 651.322,189.748 653.361 C 180.553 657.255,178.403 657.236,176.073 653.238 C 173.553 648.913,175.410 654.671,179.582 664.121 C 184.781 675.897,185.760 677.387,185.212 672.694 C 184.982 670.722,185.366 668.948,186.163 668.297 C 188.169 666.658,222.529 652.000,224.364 652.000 C 225.238 652.000,226.700 653.139,227.612 654.531 C 230.761 659.337,229.969 656.310,225.164 645.179 C 219.990 633.192,218.666 630.940,219.517 635.573 C 219.812 637.183,219.682 639.056,219.227 639.736 C 218.091 641.432,202.657 648.058,201.850 647.195 C 201.493 646.813,199.818 643.221,198.129 639.214 L 195.059 631.928 197.279 631.073 C 198.501 630.603,202.143 629.044,205.374 627.609 C 212.702 624.355,213.358 624.363,215.885 627.750 C 219.073 632.023,218.398 629.351,213.413 617.972 C 208.280 606.252,206.799 603.987,207.634 609.133 M816.596 615.540 C 815.029 619.137,813.992 622.326,814.292 622.626 C 814.592 622.926,815.340 622.233,815.954 621.086 C 817.997 617.269,820.410 618.700,826.867 627.554 C 830.297 632.259,833.336 636.713,833.620 637.451 C 834.168 638.880,831.574 639.365,816.897 640.579 C 810.463 641.111,809.199 640.961,808.678 639.604 C 808.340 638.722,808.340 637.213,808.679 636.250 C 809.087 635.090,808.960 634.837,808.303 635.500 C 807.236 636.576,799.000 655.206,799.000 656.543 C 799.000 656.986,800.013 656.399,801.250 655.239 C 803.179 653.430,805.784 652.924,819.500 651.692 L 835.500 650.254 842.000 653.377 L 848.500 656.500 848.299 660.868 C 848.188 663.270,848.304 665.029,848.556 664.777 C 849.169 664.165,860.003 639.808,859.989 639.075 C 859.983 638.759,858.825 639.963,857.416 641.750 C 856.008 643.538,854.427 645.000,853.905 645.000 C 853.382 645.000,849.613 643.597,845.529 641.883 L 838.103 638.766 829.552 626.489 C 824.144 618.726,821.000 613.254,821.000 611.606 C 821.000 607.360,819.624 608.589,816.596 615.540 M599.295 651.250 L 607.765 667.500 680.897 668.000 L 754.029 668.500 746.084 679.000 C 703.950 734.681,641.930 774.032,574.152 788.087 C 555.393 791.977,544.288 793.148,521.000 793.689 C 502.551 794.117,494.491 793.875,483.500 792.561 C 448.067 788.325,418.138 779.566,387.500 764.466 C 345.718 743.873,310.465 714.705,282.598 677.672 L 275.697 668.500 348.772 668.244 L 421.848 667.987 428.060 655.744 C 431.477 649.010,435.379 641.588,436.731 639.250 L 439.190 635.000 515.008 635.000 L 590.826 635.000 599.295 651.250 M444.679 657.750 C 444.438 658.163,440.109 671.325,435.061 687.000 C 430.012 702.675,423.692 722.138,421.016 730.250 L 416.151 745.000 514.576 745.000 C 568.709 745.000,613.000 744.664,613.000 744.252 C 613.000 743.841,611.677 739.454,610.060 734.502 C 608.444 729.551,602.120 710.088,596.008 691.250 L 584.895 657.000 515.006 657.000 C 476.568 657.000,444.920 657.338,444.679 657.750 M232.000 661.366 C 232.000 661.787,232.448 662.969,232.996 663.993 C 233.544 665.017,233.723 666.559,233.393 667.419 C 233.063 668.278,226.820 673.018,219.520 677.950 C 212.219 682.883,205.066 688.322,203.623 690.036 C 196.697 698.267,204.275 715.796,216.051 718.785 C 222.009 720.297,225.617 718.859,240.361 709.092 C 252.735 700.895,256.553 699.552,259.020 702.524 C 259.716 703.362,260.486 703.847,260.732 703.601 C 261.252 703.082,253.490 691.421,252.020 690.512 C 251.403 690.131,251.260 691.049,251.640 692.948 C 252.441 696.954,251.539 697.924,239.516 705.984 C 226.521 714.696,223.886 716.000,219.272 716.000 C 209.982 716.000,204.388 704.724,210.750 698.824 C 215.192 694.704,239.155 679.000,241.000 679.000 C 241.929 679.000,243.507 679.903,244.506 681.006 C 248.531 685.454,246.741 681.683,240.403 672.362 C 233.154 661.701,232.000 660.191,232.000 661.366 M783.875 679.162 C 777.619 688.601,772.161 696.889,771.747 697.580 C 771.239 698.425,772.869 699.982,776.734 702.346 C 779.892 704.278,782.616 705.718,782.787 705.546 C 782.959 705.375,781.952 703.544,780.549 701.478 C 779.147 699.411,778.002 696.771,778.004 695.610 C 778.007 693.640,781.417 687.000,782.426 687.000 C 782.676 687.000,790.834 692.210,800.555 698.578 L 818.231 710.157 817.587 714.328 C 816.970 718.323,817.241 718.055,823.970 708.000 C 831.257 697.110,832.653 694.098,828.686 697.826 C 827.413 699.022,825.872 700.000,825.262 700.000 C 824.652 700.000,816.250 694.770,806.592 688.378 L 789.031 676.756 790.766 673.745 C 793.073 669.740,797.552 667.884,802.315 668.958 C 804.342 669.415,806.000 669.425,806.000 668.980 C 806.000 668.290,796.638 662.000,795.610 662.000 C 795.412 662.000,790.131 669.723,783.875 679.162 M580.751 672.500 C 581.993 676.350,583.262 680.288,583.571 681.250 C 584.104 682.905,580.394 683.000,515.067 683.000 C 477.080 683.000,446.000 682.689,446.000 682.310 C 446.000 681.930,447.219 677.876,448.709 673.302 L 451.417 664.985 514.956 665.243 L 578.495 665.500 580.751 672.500 M589.657 699.445 C 590.946 703.264,592.000 707.202,592.000 708.195 C 592.000 709.920,588.542 710.000,514.393 710.000 C 440.892 710.000,436.822 709.907,437.459 708.250 C 437.829 707.288,439.093 703.235,440.268 699.244 L 442.404 691.987 514.860 692.244 L 587.315 692.500 589.657 699.445 M757.156 714.500 C 752.607 719.725,749.152 724.000,749.478 724.000 C 749.804 724.000,751.203 723.258,752.588 722.351 C 755.666 720.334,755.597 720.289,774.750 736.926 C 787.969 748.409,789.730 750.870,786.817 753.783 C 786.166 754.434,785.855 755.188,786.125 755.458 C 786.396 755.729,790.352 751.660,794.917 746.417 C 799.482 741.173,803.007 736.674,802.751 736.417 C 802.495 736.161,801.716 736.638,801.020 737.476 C 798.314 740.736,795.385 739.088,779.642 725.449 C 771.039 717.996,764.000 711.346,764.000 710.671 C 764.000 709.997,764.701 708.445,765.557 707.223 C 766.413 706.000,766.734 705.000,766.270 705.000 C 765.806 705.000,761.705 709.275,757.156 714.500 M264.717 712.179 L 265.218 716.623 251.359 729.798 C 237.347 743.119,234.323 744.923,231.217 741.817 C 230.566 741.166,229.814 740.853,229.546 741.121 C 229.278 741.389,231.778 744.509,235.102 748.054 C 238.426 751.599,240.830 753.600,240.444 752.500 C 238.186 746.064,238.073 746.264,251.034 733.847 C 257.817 727.350,263.546 722.213,263.766 722.433 C 263.986 722.652,262.757 734.173,261.035 748.035 C 259.313 761.897,258.132 773.465,258.409 773.743 C 258.687 774.020,266.238 767.217,275.190 758.624 C 291.727 742.750,294.549 740.949,297.800 744.200 C 298.460 744.860,299.000 744.957,299.000 744.416 C 299.000 743.875,296.525 740.987,293.500 738.000 C 290.475 735.013,288.000 733.025,288.000 733.584 C 288.000 734.143,288.507 735.107,289.127 735.727 C 291.285 737.885,289.012 741.634,280.510 749.932 C 275.803 754.527,271.802 758.109,271.619 757.893 C 271.436 757.677,272.418 749.026,273.803 738.670 L 276.320 719.840 270.268 713.788 L 264.216 707.736 264.717 712.179 M598.418 726.753 C 599.838 731.018,601.000 734.843,601.000 735.253 C 601.000 735.664,562.137 736.000,514.637 736.000 L 428.274 736.000 430.637 728.750 C 431.937 724.763,433.212 720.938,433.469 720.250 C 433.838 719.264,451.043 719.000,514.886 719.000 L 595.836 719.000 598.418 726.753 M740.075 733.250 C 740.437 736.039,739.830 736.735,736.045 737.868 C 730.522 739.523,726.441 743.278,724.423 748.561 C 722.293 754.139,723.470 759.160,727.902 763.406 C 732.100 767.428,737.714 767.827,749.524 764.942 C 760.396 762.287,763.647 762.777,765.868 767.410 C 767.054 769.885,767.025 770.724,765.658 773.591 C 764.788 775.416,762.648 777.648,760.904 778.550 C 756.457 780.849,748.681 780.599,744.303 778.016 C 742.348 776.863,740.529 776.137,740.262 776.404 C 739.727 776.939,751.122 789.999,752.125 789.999 C 752.469 790.000,753.012 788.691,753.332 787.092 C 753.780 784.850,754.745 783.909,757.542 782.986 C 768.697 779.305,774.440 766.406,768.713 757.898 C 764.182 751.167,758.427 750.305,743.335 754.094 C 734.721 756.256,733.677 756.330,731.205 754.949 C 727.176 752.698,726.989 747.857,730.785 744.061 C 734.911 739.935,740.017 739.188,746.207 741.803 C 748.913 742.946,750.986 743.503,750.814 743.040 C 750.394 741.915,741.057 732.000,740.416 732.000 C 740.139 732.000,739.985 732.563,740.075 733.250 M303.000 774.715 C 287.698 783.475,280.635 786.991,278.500 786.910 C 276.850 786.848,275.101 786.843,274.613 786.899 C 274.126 786.954,276.782 789.256,280.517 792.013 C 287.419 797.107,290.131 797.898,286.142 793.652 C 284.933 792.364,284.191 790.678,284.494 789.905 C 285.021 788.559,291.286 784.000,292.609 784.000 C 293.433 784.000,305.745 792.779,306.394 793.829 C 306.666 794.268,306.311 796.849,305.606 799.564 C 304.396 804.222,304.146 804.492,301.162 804.353 C 299.423 804.271,298.000 804.341,298.000 804.508 C 298.000 804.895,315.904 818.000,316.432 818.000 C 316.649 818.000,316.339 816.709,315.743 815.131 C 314.845 812.752,315.559 808.147,319.924 788.161 C 322.818 774.905,325.032 763.688,324.843 763.233 C 324.654 762.778,314.825 767.945,303.000 774.715 M699.337 768.460 C 694.519 769.939,670.000 785.696,670.000 787.314 C 670.000 788.032,670.406 787.994,671.200 787.200 C 671.860 786.540,673.423 786.000,674.674 786.000 C 676.428 786.000,678.373 788.119,683.169 795.250 C 691.678 807.901,700.000 821.226,700.000 822.197 C 700.000 822.639,699.063 823.938,697.917 825.083 C 696.771 826.229,695.995 827.329,696.194 827.527 C 696.735 828.068,716.443 815.007,716.866 813.827 C 717.100 813.173,716.494 813.201,715.181 813.903 C 714.054 814.506,712.441 815.000,711.596 815.000 C 710.141 815.000,700.000 801.141,700.000 799.152 C 700.000 796.930,703.247 797.600,715.221 802.290 L 727.942 807.273 734.471 803.019 C 741.323 798.555,742.406 797.399,738.873 798.323 C 737.635 798.647,732.311 797.221,726.123 794.909 C 711.940 789.608,712.423 789.996,714.923 785.895 C 721.103 775.757,711.299 764.789,699.337 768.460 M310.918 775.750 C 310.874 776.713,310.086 780.565,309.168 784.311 L 307.500 791.123 302.404 787.311 C 299.602 785.215,297.173 783.050,297.007 782.500 C 296.732 781.591,308.484 774.066,310.250 774.020 C 310.663 774.009,310.963 774.788,310.918 775.750 M701.385 776.088 C 708.799 781.920,708.689 789.525,701.115 794.918 L 698.265 796.947 692.633 788.483 C 689.535 783.828,687.000 779.576,687.000 779.034 C 687.000 777.712,693.961 774.100,696.615 774.044 C 697.778 774.020,699.925 774.940,701.385 776.088 M350.927 783.635 C 352.067 785.084,352.980 787.222,352.955 788.385 C 352.930 789.548,348.993 798.150,344.205 807.500 L 335.500 824.500 331.750 824.386 C 329.688 824.323,328.000 824.430,328.000 824.623 C 328.000 825.223,341.882 832.000,343.110 832.000 C 343.748 832.000,343.084 831.067,341.635 829.927 C 340.186 828.788,338.992 827.100,338.982 826.177 C 338.962 824.257,353.068 795.000,354.014 795.000 C 354.356 795.000,356.772 804.563,359.381 816.250 C 365.267 842.609,365.888 845.000,366.851 845.000 C 367.277 845.000,371.848 836.394,377.009 825.875 C 382.170 815.356,387.012 806.131,387.768 805.375 C 388.524 804.619,390.573 803.978,392.321 803.951 C 395.178 803.906,394.740 803.511,388.000 800.051 C 380.669 796.288,377.444 795.521,381.810 798.580 C 383.151 799.519,383.994 801.158,383.986 802.807 C 383.970 805.754,373.996 827.121,373.392 825.500 C 373.188 824.950,371.247 816.469,369.080 806.653 C 366.913 796.838,364.996 788.678,364.820 788.521 C 364.138 787.910,350.017 781.000,349.452 781.000 C 349.124 781.000,349.788 782.186,350.927 783.635 M640.521 799.585 C 622.850 807.362,620.049 808.907,624.719 808.303 C 626.248 808.105,628.028 808.299,628.674 808.734 C 630.663 810.073,646.069 846.656,645.390 848.426 C 645.046 849.322,643.879 850.530,642.797 851.109 C 641.714 851.688,641.020 852.353,641.253 852.587 C 641.739 853.072,678.059 837.341,679.287 836.113 C 680.133 835.267,677.266 823.192,675.831 821.550 C 675.371 821.024,675.000 822.498,675.000 824.850 C 675.000 831.978,671.074 837.335,663.589 840.420 C 661.438 841.307,658.947 841.801,658.054 841.517 C 656.389 840.989,648.908 825.103,649.687 823.750 C 649.924 823.338,651.718 823.000,653.674 823.000 C 656.497 823.000,657.928 823.762,660.615 826.695 C 662.477 828.728,664.000 829.911,664.000 829.324 C 664.000 828.022,655.135 807.813,654.082 806.715 C 653.668 806.283,653.524 808.308,653.761 811.215 C 654.144 815.911,653.901 816.771,651.583 818.937 C 649.976 820.437,648.624 821.013,648.063 820.437 C 646.278 818.599,640.132 803.486,640.867 802.742 C 641.279 802.325,644.223 801.067,647.409 799.947 C 654.192 797.563,658.598 798.402,661.998 802.725 C 663.115 804.144,664.246 805.088,664.512 804.821 C 665.324 804.009,659.748 791.996,658.586 792.056 C 657.989 792.087,649.860 795.475,640.521 799.585 M608.250 811.786 C 604.813 812.645,602.000 813.677,602.000 814.080 C 602.000 814.483,602.833 814.595,603.851 814.329 C 605.804 813.818,609.000 816.311,609.000 818.345 C 609.000 820.448,604.174 847.159,603.710 847.623 C 603.110 848.224,584.000 822.582,584.000 821.176 C 584.000 820.564,585.238 819.393,586.750 818.572 C 590.608 816.479,589.174 816.632,576.570 819.657 C 566.786 822.005,565.821 822.421,568.262 823.244 C 570.205 823.899,575.651 830.256,586.623 844.677 C 595.202 855.953,602.566 864.801,602.989 864.340 C 603.411 863.878,605.652 853.157,607.968 840.516 C 612.151 817.691,612.852 815.111,615.783 811.750 C 617.664 809.595,617.006 809.598,608.250 811.786 M425.409 815.218 C 427.799 817.229,428.208 818.185,427.705 820.582 C 420.007 857.281,420.010 857.167,426.487 862.854 C 432.815 868.410,444.971 869.842,451.048 865.747 C 456.069 862.363,457.769 858.557,461.047 843.357 C 464.847 825.739,465.166 825.000,468.979 825.000 C 474.209 825.000,472.266 823.395,465.533 822.154 C 461.976 821.499,458.376 820.698,457.533 820.374 C 455.094 819.438,455.758 821.420,458.250 822.513 C 461.473 823.927,461.524 827.298,458.530 841.238 C 454.196 861.417,451.235 865.737,442.418 864.744 C 436.175 864.040,432.993 860.936,433.021 855.576 C 433.042 851.580,439.414 821.252,440.451 820.216 C 440.741 819.926,442.670 819.409,444.739 819.068 C 448.079 818.516,447.211 818.181,437.000 816.074 C 430.675 814.769,424.825 813.493,424.000 813.237 C 423.175 812.981,423.809 813.873,425.409 815.218 M547.150 823.564 C 536.470 824.790,531.533 826.000,537.211 826.000 C 538.610 826.000,540.285 826.638,540.932 827.418 C 541.968 828.666,545.935 859.965,545.982 867.265 C 545.995 869.303,545.147 870.572,542.750 872.097 L 539.500 874.165 544.000 873.603 C 546.475 873.294,552.000 872.744,556.278 872.380 C 560.556 872.017,564.295 871.332,564.587 870.860 C 564.879 870.387,564.022 870.000,562.681 870.000 C 561.341 870.000,559.773 869.431,559.196 868.736 C 558.618 868.040,557.159 858.365,555.952 847.235 C 553.629 825.816,553.798 824.000,558.122 824.000 C 559.155 824.000,560.000 823.550,560.000 823.000 C 560.000 822.450,559.663 822.059,559.250 822.131 C 558.838 822.203,553.392 822.848,547.150 823.564 M478.000 824.864 C 478.000 825.489,478.605 826.000,479.345 826.000 C 480.085 826.000,481.506 826.902,482.503 828.003 C 484.169 829.844,484.265 831.537,483.686 848.849 C 483.339 859.212,482.761 868.458,482.402 869.396 C 482.042 870.333,480.454 871.359,478.874 871.675 C 473.178 872.814,476.176 874.000,484.750 873.998 L 493.500 873.997 490.000 872.248 L 486.500 870.500 486.235 860.000 C 486.090 854.225,486.315 846.177,486.735 842.116 L 487.500 834.733 503.000 855.332 C 511.525 866.661,518.770 875.946,519.100 875.965 C 519.896 876.011,520.986 860.222,521.058 847.596 C 521.140 833.083,521.882 829.830,525.516 828.048 C 528.877 826.399,528.483 826.265,518.750 825.758 C 515.038 825.564,512.000 825.764,512.000 826.203 C 512.000 826.641,512.830 827.000,513.845 827.000 C 517.487 827.000,519.007 830.181,518.901 837.579 C 518.847 841.385,518.509 846.964,518.151 849.976 L 517.500 855.452 506.194 840.226 C 495.067 825.241,494.827 825.000,491.083 825.000 C 488.991 825.000,485.191 824.714,482.640 824.364 C 479.470 823.930,478.000 824.088,478.000 824.864 M308.681 861.632 C 320.151 868.382,344.407 880.108,359.250 886.078 C 365.163 888.456,370.000 890.658,370.000 890.972 C 370.000 891.285,365.986 903.565,361.080 918.261 C 356.174 932.957,352.461 945.165,352.830 945.391 C 353.198 945.617,358.450 947.234,364.500 948.985 C 370.550 950.735,375.852 952.505,376.283 952.917 C 377.399 953.985,376.042 957.000,374.445 957.000 C 371.860 957.000,356.352 951.750,340.000 945.341 C 311.140 934.028,274.946 915.165,250.043 898.460 L 242.649 893.500 270.324 893.234 L 298.000 892.968 298.000 874.484 C 298.000 864.318,298.250 856.000,298.556 856.000 C 298.861 856.000,303.417 858.534,308.681 861.632 M730.000 874.984 L 730.000 892.968 757.750 893.234 L 785.500 893.500 778.000 898.602 C 747.095 919.625,706.038 939.864,668.546 952.558 C 652.366 958.035,651.051 958.144,651.019 954.000 C 651.011 952.946,654.052 951.659,661.254 949.668 C 675.782 945.652,676.321 945.395,675.734 942.740 C 675.326 940.893,660.341 896.657,658.486 891.825 C 658.074 890.749,660.185 889.514,666.604 887.075 C 680.075 881.959,703.326 870.963,716.000 863.717 C 722.325 860.101,728.063 857.110,728.750 857.071 C 729.706 857.017,730.000 861.226,730.000 874.984 M393.124 881.550 C 399.994 883.983,423.227 889.651,437.500 892.375 C 456.422 895.986,475.030 898.050,495.785 898.839 C 542.031 900.598,584.887 895.721,627.288 883.874 C 635.421 881.602,642.320 879.986,642.618 880.285 C 642.916 880.583,644.434 884.578,645.991 889.163 C 647.548 893.748,651.811 906.224,655.465 916.886 C 659.119 927.549,661.907 936.801,661.659 937.446 C 661.411 938.091,652.949 940.954,642.854 943.807 C 555.857 968.393,464.393 967.529,376.000 941.288 C 370.775 939.737,366.507 938.025,366.516 937.484 C 366.525 936.943,370.794 923.788,376.003 908.250 C 383.259 886.605,385.856 880.000,387.111 880.000 C 388.012 880.000,390.718 880.697,393.124 881.550 M396.514 900.168 C 390.852 904.622,389.096 914.862,393.314 918.826 C 394.587 920.022,396.387 921.000,397.314 921.000 C 399.697 921.000,399.431 922.021,395.947 926.248 C 393.971 928.646,391.415 930.380,388.697 931.168 C 385.208 932.180,384.902 932.452,386.881 932.779 C 398.131 934.642,409.000 923.084,409.000 909.258 C 409.000 903.851,408.636 902.545,406.545 900.455 C 403.515 897.424,400.125 897.327,396.514 900.168 M404.445 904.888 C 403.133 912.869,400.738 919.096,399.099 918.786 C 396.970 918.383,396.522 913.780,397.975 907.250 C 399.358 901.035,401.493 898.335,403.625 900.104 C 404.600 900.913,404.854 902.399,404.445 904.888 M610.484 903.253 C 604.008 909.729,602.579 916.815,605.731 926.816 C 608.939 936.992,616.130 940.961,621.545 935.545 C 623.470 933.621,624.000 932.055,623.998 928.295 C 623.996 919.244,618.434 912.744,612.592 914.965 C 610.171 915.886,610.000 915.759,610.000 913.040 C 610.000 908.963,611.681 904.968,614.751 901.750 C 619.083 897.208,615.139 898.598,610.484 903.253 M425.253 910.250 C 422.986 916.156,423.120 917.269,425.725 914.175 C 427.336 912.262,427.940 912.164,432.250 913.114 C 434.863 913.691,437.000 914.357,437.000 914.595 C 437.000 914.834,434.075 920.866,430.500 928.000 C 426.925 935.134,424.000 941.203,424.000 941.486 C 424.000 941.769,424.823 942.000,425.828 942.000 C 427.208 942.000,429.567 937.974,435.456 925.561 C 439.746 916.519,443.291 908.757,443.335 908.311 C 443.406 907.571,432.722 905.158,428.884 905.047 C 427.839 905.016,426.556 906.854,425.253 910.250 M575.736 907.692 C 573.685 908.227,571.553 912.020,570.504 917.000 C 569.729 920.680,570.530 920.583,572.424 916.768 C 573.929 913.737,577.164 913.418,579.555 916.065 C 582.602 919.437,581.916 926.829,577.618 936.932 C 575.645 941.570,574.203 945.536,574.412 945.745 C 574.794 946.127,585.975 944.345,589.250 943.381 C 590.662 942.965,590.987 941.768,590.932 937.183 C 590.875 932.388,590.697 931.848,589.789 933.728 C 588.692 936.001,587.998 936.347,582.189 937.518 L 578.877 938.186 582.091 931.843 C 583.858 928.354,585.668 923.925,586.113 922.000 C 587.205 917.276,585.543 911.572,582.341 909.054 C 579.720 906.992,578.995 906.842,575.736 907.692 M468.007 912.593 C 460.502 915.848,456.255 922.451,455.339 932.292 C 454.922 936.762,455.199 939.549,456.328 942.248 C 460.298 951.738,471.199 948.393,472.697 937.224 C 473.720 929.595,471.185 925.000,465.953 925.000 C 463.200 925.000,463.103 924.858,464.091 922.250 C 465.471 918.609,468.706 915.231,473.000 912.949 C 476.235 911.229,476.310 911.088,474.000 911.083 C 472.625 911.081,469.928 911.760,468.007 912.593 M511.250 915.128 C 508.363 916.799,506.000 918.594,506.000 919.118 C 506.000 919.692,506.770 919.658,507.939 919.032 C 509.006 918.462,510.089 918.335,510.346 918.750 C 510.603 919.166,511.138 925.647,511.536 933.153 L 512.259 946.800 509.380 948.360 C 506.558 949.889,506.656 949.921,514.250 949.960 C 521.555 949.998,524.436 948.870,520.000 947.710 C 518.214 947.243,517.988 946.296,517.888 938.844 C 517.827 934.255,517.489 926.358,517.138 921.296 L 516.500 912.092 511.250 915.128 M542.229 912.669 C 540.558 913.342,538.263 917.854,537.993 921.000 C 537.424 927.634,538.063 930.217,541.002 933.156 C 543.498 935.652,544.516 936.046,547.043 935.490 C 549.973 934.847,550.058 934.925,549.401 937.661 C 548.282 942.320,546.232 945.667,542.770 948.487 C 539.761 950.939,539.699 951.097,542.000 950.476 C 546.088 949.373,551.342 944.687,553.812 939.942 C 558.089 931.725,555.488 915.910,549.405 913.139 C 546.804 911.954,544.399 911.796,542.229 912.669 M634.500 913.216 C 632.850 913.798,631.351 914.399,631.169 914.551 C 630.889 914.786,632.706 918.824,633.538 919.819 C 634.231 920.648,642.000 917.530,642.000 916.423 C 642.000 912.105,640.034 911.264,634.500 913.216 M548.003 916.509 C 548.528 917.889,549.080 922.036,549.229 925.724 C 549.449 931.161,549.203 932.492,547.928 932.754 C 547.029 932.939,545.877 932.026,545.237 930.621 C 543.814 927.498,542.547 916.543,543.441 915.096 C 544.628 913.175,547.017 913.915,548.003 916.509 M616.377 922.250 C 619.442 930.695,620.064 934.365,618.666 935.762 C 616.888 937.540,614.786 935.033,612.638 928.572 C 610.368 921.742,610.467 918.000,612.917 918.000 C 614.264 918.000,615.293 919.264,616.377 922.250 M466.595 929.523 C 467.509 933.166,466.082 944.687,464.560 945.950 C 461.936 948.128,460.674 944.495,461.278 936.509 C 461.587 932.416,462.128 928.602,462.479 928.033 C 463.652 926.137,465.954 926.970,466.595 929.523 M486.000 932.000 C 486.000 934.933,486.111 935.000,491.000 935.000 C 495.889 935.000,496.000 934.933,496.000 932.000 C 496.000 929.067,495.889 929.000,491.000 929.000 C 486.111 929.000,486.000 929.067,486.000 932.000 " stroke="none" fill="#3C4A5A" fill-rule="evenodd"/></svg>